<mxfile host="app.diagrams.net" modified="2024-02-22T02:50:41.394Z" agent="Mozilla/5.0 (Macintosh; Intel Mac OS X 10_15_7) AppleWebKit/537.36 (KHTML, like Gecko) Chrome/121.0.0.0 Safari/537.36" version="23.1.5" etag="76m03v5aLSO7-WEo1etG" type="github">
  <diagram name="第 1 页" id="S2YQ5e2EtzgKKtqBkw4Z">
    <mxGraphModel>
      <root>
        <mxCell id="0" />
        <mxCell id="1" parent="0" />
      </root>
    </mxGraphModel>
  </diagram>
</mxfile>
